<svg width="273" height="220" viewBox="0 0 273 220" fill="none" xmlns="http://www.w3.org/2000/svg">
<path d="M118.034 5.02817C131.551 -4.06748 149.882 -0.483186 158.978 13.034L266.978 173.534C276.073 187.051 272.489 205.382 258.972 214.478C245.455 223.574 227.124 219.989 218.028 206.472L110.028 45.9721C100.932 32.455 104.517 14.1237 118.034 5.02817Z" fill="black"/>
<path d="M106.121 77.6293C119.583 86.8074 123.055 105.16 113.877 118.621L53.8766 206.621C44.6984 220.083 26.3456 223.555 12.8844 214.377C-0.57681 205.199 -4.04896 186.846 5.12915 173.385L65.1291 85.3846C74.3073 71.9234 92.6601 68.4512 106.121 77.6293Z" fill="black"/>
<path d="M134.503 161.503C118.487 161.503 105.503 174.487 105.503 190.503C105.503 206.519 118.487 219.503 134.503 219.503C150.519 219.503 163.503 206.519 163.503 190.503C163.503 174.487 150.519 161.503 134.503 161.503Z" fill="black"/>
</svg>
